<svg width="40" height="24" viewBox="0 0 40 24" fill="none" xmlns="http://www.w3.org/2000/svg">
<rect width="40" height="24" rx="4" fill="#55BC6B"/>
<path d="M14.9414 14.2246H16.9141V15.6992H14.9414V19H13.125V15.6992H6.65039V14.6348L13.0176 4.78125H14.9414V14.2246ZM8.70117 14.2246H13.125V7.25195L12.9102 7.64258L8.70117 14.2246ZM18.7695 18.0527C18.7695 17.7402 18.8607 17.4798 19.043 17.2715C19.2318 17.0632 19.5117 16.959 19.8828 16.959C20.2539 16.959 20.5339 17.0632 20.7227 17.2715C20.918 17.4798 21.0156 17.7402 21.0156 18.0527C21.0156 18.3522 20.918 18.6029 20.7227 18.8047C20.5339 19.0065 20.2539 19.1074 19.8828 19.1074C19.5117 19.1074 19.2318 19.0065 19.043 18.8047C18.8607 18.6029 18.7695 18.3522 18.7695 18.0527ZM24.6484 11.8711L25.3711 4.78125H32.6562V6.45117H26.9043L26.4746 10.3281C27.1712 9.91797 27.9622 9.71289 28.8477 9.71289C30.1432 9.71289 31.1719 10.1426 31.9336 11.002C32.6953 11.8548 33.0762 13.0104 33.0762 14.4688C33.0762 15.9336 32.679 17.0892 31.8848 17.9355C31.097 18.7754 29.9935 19.1953 28.5742 19.1953C27.3177 19.1953 26.2923 18.847 25.498 18.1504C24.7038 17.4538 24.2513 16.4902 24.1406 15.2598H25.8496C25.9603 16.0736 26.25 16.6888 26.7188 17.1055C27.1875 17.5156 27.806 17.7207 28.5742 17.7207C29.4141 17.7207 30.0716 17.4342 30.5469 16.8613C31.0286 16.2884 31.2695 15.4974 31.2695 14.4883C31.2695 13.5378 31.0091 12.776 30.4883 12.2031C29.974 11.6237 29.2871 11.334 28.4277 11.334C27.64 11.334 27.0215 11.5065 26.5723 11.8516L26.0938 12.2422L24.6484 11.8711Z" fill="white"/>
</svg>
