<svg width="32" height="32" viewBox="0 0 32 32" fill="none" xmlns="http://www.w3.org/2000/svg">
<path fill-rule="evenodd" clip-rule="evenodd" d="M26.7253 12.25C26.7253 8.97766 24.0726 6.32495 20.8003 6.32495C18.8259 6.32495 17.0773 7.29071 16.0008 8.77554C14.9241 7.29068 13.1752 6.32495 11.2008 6.32495C7.92856 6.32495 5.27584 8.97766 5.27584 12.25C5.27584 15.1797 6.85469 17.3295 8.75879 19.3102C9.4395 20.0183 10.1504 20.6977 10.8773 21.3924C12.2525 22.7067 13.685 24.0758 15.0791 25.7976C15.1381 25.8813 15.2096 25.9583 15.2933 26.0258C15.5019 26.1938 15.7521 26.2753 16.0006 26.2748C16.249 26.2753 16.4991 26.1939 16.7076 26.026C16.7915 25.9585 16.863 25.8814 16.9221 25.7976C18.3161 24.0758 19.7487 22.7067 21.1238 21.3924C21.8508 20.6977 22.5617 20.0183 23.2424 19.3102C25.1465 17.3295 26.7253 15.1797 26.7253 12.25ZM16.0006 23.4031C17.2455 21.9876 18.551 20.7371 19.7227 19.6146C20.4153 18.9512 21.0612 18.3325 21.6203 17.7509C23.4288 15.8696 24.4753 14.2697 24.4753 12.25C24.4753 10.2203 22.83 8.57495 20.8003 8.57495C18.7708 8.57495 17.1258 10.2201 17.1258 12.25C17.1258 12.8713 16.6222 13.375 16.0008 13.375C15.3795 13.375 14.8758 12.8713 14.8758 12.25C14.8758 10.2203 13.2305 8.57495 11.2008 8.57495C9.1712 8.57495 7.52584 10.2203 7.52584 12.25C7.52584 14.2697 8.57234 15.8696 10.3808 17.7509C10.9399 18.3325 11.5858 18.9512 12.2784 19.6146C13.4502 20.7371 14.7557 21.9876 16.0006 23.4031Z" fill="#825038"/>
</svg>
