<svg width="37" height="49" viewBox="0 0 37 49" fill="none" xmlns="http://www.w3.org/2000/svg">
<path fill-rule="evenodd" clip-rule="evenodd" d="M26.9549 40.325C27.3335 40.325 27.6364 40.6173 27.6364 40.9827C27.6364 42.2818 27.6364 45.0708 27.6364 45.0749V45.0789C27.607 46.9626 25.9621 48.5824 24.0354 48.6596C24.0312 48.6596 24.027 48.6596 24.0228 48.6596C17.9315 48.7367 11.8401 48.7367 5.74878 48.6596C5.74457 48.6596 5.74036 48.6596 5.73195 48.6596C3.89361 48.5865 2.31188 47.125 2.14361 45.3712C2.14361 45.3672 2.14361 45.3631 2.14361 45.359C2.04685 43.9138 2.00899 42.4564 2.00058 40.9827C2.00058 40.8081 2.07209 40.6417 2.1983 40.5199C2.3245 40.394 2.50118 40.325 2.68207 40.325C6.30827 40.325 23.3329 40.325 26.9549 40.325ZM29.4495 33.115C29.4495 32.6725 29.4537 32.5466 30.0342 32.4654C30.6484 32.3761 31.5865 32.2462 32.003 32.2219C32.1208 32.2178 32.1208 32.2178 32.2386 32.2219C34.6617 32.3274 36.7692 34.3207 36.8618 36.7362C36.9123 40.4224 35.4147 44.0478 31.881 45.489C31.3005 45.7122 30.3918 46.0776 29.7945 46.3171C29.6725 46.3699 29.5294 46.3496 29.4243 46.2725C29.3191 46.1953 29.2602 46.0695 29.277 45.9396C29.3275 45.5336 29.3906 45.0261 29.4243 44.746C29.4411 44.6121 29.5336 44.4984 29.6641 44.4537C30.7242 44.0802 31.7716 43.7067 32.6256 43.0694C34.4934 41.6769 35.0823 39.3669 35.0487 36.7809C34.9898 35.2341 33.5006 33.7808 31.9273 33.9878L31.8768 33.9959C31.3425 34.1055 30.8125 34.2233 30.2824 34.341C30.0805 34.3857 29.9291 34.3897 29.7061 34.2152C29.4495 34.0203 29.4495 33.9026 29.4495 33.7036C29.4495 33.5047 29.4495 33.2977 29.4495 33.115ZM26.9549 30.4802C27.1358 30.4802 27.3083 30.5493 27.4387 30.671C27.5649 30.7969 27.6364 30.9633 27.6364 31.1379C27.6364 32.027 27.6364 33.5372 27.6364 33.7118C27.6364 33.7239 27.6364 33.7402 27.6322 33.7524C27.6322 33.7848 27.6322 33.8173 27.6322 33.8457C27.6322 33.862 27.6364 33.8741 27.6364 33.8904C27.6364 34.1177 27.6364 36.6794 27.6364 37.9136C27.6364 38.2749 27.3335 38.5672 26.9549 38.5672C23.3371 38.5712 6.34193 38.5753 2.6989 38.5753C2.51801 38.5753 2.34132 38.5022 2.21512 38.3804C2.08892 38.2546 2.01741 38.0841 2.02161 37.9095C2.05527 35.6564 2.11837 33.391 2.13099 31.1339C2.13099 30.7725 2.43808 30.4802 2.81248 30.4802C6.41765 30.4802 23.3413 30.4802 26.9549 30.4802ZM28.7891 28.767C28.9868 28.7549 29.1845 28.7427 29.3822 28.7264C29.8828 28.6656 29.908 27.6303 29.3654 27.5897C19.7235 27.3624 10.0775 27.5897 0.431467 27.5897C-0.123821 27.6019 -0.153268 28.6899 0.40202 28.7305C0.629184 28.7346 0.856347 28.7386 1.08351 28.7467C1.12979 28.7386 1.17606 28.7305 1.22654 28.7305C1.34433 28.7305 1.58411 28.7305 1.58411 28.7305L28.2043 28.7143C28.2043 28.7143 28.4946 28.7264 28.6376 28.7346C28.6881 28.7427 28.7428 28.7549 28.7891 28.767ZM2.97654 6.52394C2.98916 6.52394 3.00599 6.52394 3.01861 6.52394C3.03964 6.52394 3.05647 6.528 3.0775 6.528C3.08592 6.528 3.09854 6.528 3.11116 6.528C3.23315 6.528 3.9483 6.528 4.45731 6.528C4.76861 6.528 5.03363 6.7391 5.09253 7.0314C5.65202 9.71487 8.26861 22.3121 8.87438 25.231C8.90383 25.3772 8.86597 25.5315 8.76501 25.6492C8.66404 25.7669 8.51681 25.8359 8.36116 25.8359C8.1971 25.8359 8.04986 25.7385 7.99517 25.5883C7.25058 23.6478 2.33712 10.7988 1.02462 7.3643C0.953103 7.17349 0.982549 6.95833 1.10034 6.79188C1.22233 6.62137 1.42005 6.52394 1.63459 6.52394C2.20671 6.52394 2.85034 6.52394 2.97654 6.52394ZM9.8209 6.528C10.1532 6.528 10.4351 6.77158 10.4645 7.0923C10.7422 9.87725 11.9621 22.1091 12.265 25.1499C12.2818 25.3244 12.2229 25.499 12.1009 25.6289C11.9747 25.7588 11.8023 25.8359 11.6172 25.8359C11.5372 25.8359 11.4573 25.8359 11.3816 25.8359C11.0703 25.8359 10.8053 25.6248 10.7464 25.3325C10.1953 22.6937 7.65443 10.4456 6.99397 7.27905C6.95611 7.0923 7.00659 6.90149 7.12859 6.75534C7.25479 6.61325 7.43568 6.528 7.63339 6.528C8.29385 6.528 9.22354 6.528 9.8209 6.528ZM16.6484 6.528C16.8335 6.528 17.006 6.60107 17.128 6.73504C17.25 6.86496 17.3131 7.03952 17.2963 7.21409C16.9934 10.2548 15.7734 22.4826 15.4958 25.2676C15.4621 25.5883 15.1845 25.8359 14.8521 25.8359C14.8143 25.8359 14.7806 25.8359 14.7428 25.8359C14.4104 25.8359 14.1328 25.5883 14.0991 25.2676C13.8215 22.4826 12.6015 10.2548 12.2987 7.21409C12.2818 7.03952 12.3407 6.86496 12.4669 6.73504C12.5889 6.60107 12.7614 6.528 12.9465 6.528C13.9225 6.528 15.6725 6.528 16.6484 6.528ZM21.9615 6.528C22.1592 6.528 22.3401 6.61325 22.4663 6.75534C22.5883 6.90149 22.6388 7.0923 22.601 7.27905C21.9405 10.4456 19.3996 22.6897 18.8485 25.3285C18.7896 25.6208 18.5246 25.8319 18.2133 25.8319C18.1376 25.8319 18.0577 25.8319 17.9778 25.8319C17.7927 25.8319 17.6202 25.7588 17.494 25.6289C17.372 25.499 17.3131 25.3244 17.3299 25.1458C17.6328 22.1051 18.8528 9.87725 19.1304 7.0923C19.1598 6.77158 19.4417 6.528 19.774 6.528C20.3714 6.528 21.3011 6.528 21.9615 6.528ZM27.9603 6.52394C28.1707 6.52394 28.3726 6.62137 28.4946 6.79188C28.6124 6.95833 28.6418 7.17349 28.5703 7.3643C27.2578 10.7988 22.3443 23.6437 21.604 25.5883C21.5451 25.7344 21.3978 25.8319 21.238 25.8319C21.2338 25.8319 21.2338 25.8319 21.2338 25.8319C21.0781 25.8319 20.9309 25.7669 20.8299 25.6492C20.729 25.5315 20.6911 25.3772 20.7205 25.227C21.3263 22.3081 23.9429 9.71081 24.5024 7.0314C24.5613 6.7391 24.8263 6.528 25.1376 6.528C25.6466 6.528 26.3618 6.528 26.4838 6.528C26.4964 6.528 26.509 6.528 26.5174 6.528L26.5553 6.52394C26.5595 6.52394 26.5679 6.52394 26.5805 6.52394C26.5931 6.52394 26.6058 6.52394 26.6184 6.52394C26.7446 6.52394 27.3882 6.52394 27.9603 6.52394ZM30.0469 8.55379C30.0721 8.48478 30.1352 8.44012 30.2067 8.42794C30.4591 8.38328 31.0691 8.28585 31.3678 8.26961C31.4898 8.26961 31.4898 8.26961 31.6118 8.26961C34.0138 8.37516 35.9321 10.6364 35.3894 13.0438C35.1202 14.1115 34.8636 15.1792 34.384 16.1657C33.1556 18.703 30.8251 20.6923 28.0781 21.6707C27.2452 21.9549 25.8191 22.4298 25.0703 22.6775C24.982 22.7059 24.8852 22.6816 24.8221 22.6166C24.759 22.5516 24.738 22.4583 24.7716 22.3771C24.9736 21.8656 25.2891 21.0739 25.4026 20.7938C25.4279 20.7288 25.4826 20.6801 25.5499 20.6558C26.7109 20.2944 27.8636 19.9494 28.8858 19.3932C31.3678 18.0373 32.878 15.6055 33.6226 12.65C33.9339 11.2657 32.7602 9.80418 31.2037 10.0437C30.7957 10.1208 30.11 10.2832 29.6851 10.3847C29.6136 10.405 29.5379 10.3807 29.4874 10.3279C29.4369 10.271 29.4201 10.198 29.4453 10.129C29.6262 9.65397 29.9375 8.84203 30.0469 8.55379ZM27.8131 0C27.994 0 28.158 0.0893135 28.2464 0.239522C28.3389 0.385672 28.3431 0.568358 28.259 0.718567C27.6743 1.74973 26.631 3.59284 26.2061 4.34794C26.0883 4.55093 25.8654 4.67678 25.6214 4.67272C18.4068 4.51845 11.1881 4.51845 3.97354 4.67272C3.72955 4.67678 3.50659 4.55093 3.3888 4.34794C2.98916 3.64155 2.04685 1.97707 1.4537 0.925612C1.34433 0.730746 1.34854 0.495284 1.46632 0.308538C1.58411 0.117732 1.79445 0 2.02161 0C6.54806 0 23.7746 0 27.8131 0Z" fill="#D95D39"/>
</svg>
