<svg width="24" height="24" viewBox="0 0 24 24" fill="none" xmlns="http://www.w3.org/2000/svg">
<path fill-rule="evenodd" clip-rule="evenodd" d="M13.6488 5.85001C10.8322 5.85001 8.54883 8.13335 8.54883 10.95C8.54883 13.7667 10.8322 16.05 13.6488 16.05C16.4655 16.05 18.7488 13.7667 18.7488 10.95C18.7488 8.13335 16.4655 5.85001 13.6488 5.85001ZM9.65752 17.1229C10.8069 17.8676 12.1774 18.3 13.6488 18.3C17.7081 18.3 20.9988 15.0093 20.9988 10.95C20.9988 6.89071 17.7081 3.60001 13.6488 3.60001C9.58954 3.60001 6.29883 6.89071 6.29883 10.95C6.29883 12.2781 6.65106 13.5239 7.26719 14.5991C7.36396 14.7759 7.40392 14.968 7.39358 15.1277C7.38868 15.2033 7.37363 15.2651 7.35194 15.3158L1.85237 20.5569L1.84888 20.5602C1.39977 20.9882 1.38191 21.699 1.80894 22.149C2.23597 22.599 2.94671 22.6184 3.39764 22.1923L3.40113 22.189L8.80945 17.0788C8.81028 17.0781 8.81112 17.0773 8.81195 17.0765" fill="#F8D8B9"/>
</svg>
