<svg width="24" height="24" viewBox="0 0 24 24" fill="none" xmlns="http://www.w3.org/2000/svg">
<path fill-rule="evenodd" clip-rule="evenodd" d="M7.68913 4.87518C7.52668 4.87518 7.3827 4.97978 7.33249 5.13428L6.19795 8.62518H6.90587C7.37506 8.62518 7.84311 8.67153 8.3032 8.76355L8.63804 8.83051C8.95283 8.89347 9.27308 8.92518 9.5941 8.92518H14.4059C14.7269 8.92518 15.0471 8.89347 15.3619 8.83051L15.6968 8.76355C16.1569 8.67153 16.6249 8.62518 17.0941 8.62518H17.8009L16.6663 5.13428L17.7362 4.78655L16.6663 5.13427C16.6161 4.97978 16.4721 4.87518 16.3097 4.87518H15.5992C14.9779 4.87518 14.4742 4.3715 14.4742 3.75018C14.4742 3.12886 14.9779 2.62518 15.5992 2.62518H16.3097C17.4468 2.62518 18.4547 3.35736 18.8061 4.43883L20.2261 8.80788C21.1237 9.16172 21.8051 10.0007 21.8376 11.0704C21.9281 14.0446 21.3467 16.6328 20.521 19.4917C20.1961 20.6166 19.1644 21.3752 18.0083 21.3752L5.99048 21.3752C4.83438 21.3752 3.80262 20.6166 3.47772 19.4917C2.65204 16.6328 2.07063 14.0446 2.16113 11.0704C2.19369 10.0007 2.87511 9.16167 3.77273 8.80786L5.19267 4.43883C5.54414 3.35737 6.55198 2.62518 7.68913 2.62518H12.4491C13.0704 2.62518 13.5741 3.12886 13.5741 3.75018C13.5741 4.3715 13.0704 4.87518 12.4491 4.87518H7.68913ZM4.73185 10.8752C4.51768 10.8752 4.41351 11.0265 4.41009 11.1388C4.3303 13.7611 4.83488 16.0818 5.63937 18.8674C5.68208 19.0152 5.8217 19.1252 5.99048 19.1252L18.0083 19.1252C18.177 19.1252 18.3167 19.0153 18.3594 18.8674C19.1639 16.0818 19.6685 13.7611 19.5887 11.1388C19.5852 11.0265 19.4811 10.8752 19.2669 10.8752H17.0941C16.7731 10.8752 16.4528 10.9069 16.138 10.9699L15.8032 11.0368C15.3431 11.1288 14.8751 11.1752 14.4059 11.1752H9.5941C9.12491 11.1752 8.65686 11.1288 8.19678 11.0368L7.86194 10.9699C7.54714 10.9069 7.2269 10.8752 6.90587 10.8752H4.73185ZM12.9931 15.1801C12.3747 14.84 11.6253 14.84 11.0069 15.1801C9.7658 15.8627 8.26857 15.892 7.00168 15.2586L6.24687 14.8812C5.69114 14.6033 5.46589 13.9276 5.74376 13.3718C6.02162 12.8161 6.69738 12.5909 7.2531 12.8687L8.00791 13.2461C8.61354 13.5489 9.32928 13.5349 9.92258 13.2086C11.2161 12.4971 12.7838 12.4971 14.0774 13.2086C14.6707 13.5349 15.3864 13.5489 15.9921 13.2461L16.7469 12.8687C17.3026 12.5909 17.9784 12.8161 18.2562 13.3718C18.5341 13.9276 18.3088 14.6033 17.7531 14.8812L16.9983 15.2586C15.7314 15.892 14.2342 15.8627 12.9931 15.1801Z" fill="#F8D8B9"/>
<path fill-rule="evenodd" clip-rule="evenodd" d="M12.431 17.7116C12.1498 17.6273 11.8501 17.6273 11.5689 17.7116L9.93312 18.2024C9.31198 18.3887 8.64717 18.3687 8.03832 18.1455L7.61677 17.9909C7.22787 17.8483 7.02821 17.4175 7.1708 17.0286C7.3134 16.6397 7.74426 16.44 8.13315 16.5826L8.5547 16.7372C8.85913 16.8488 9.19153 16.8588 9.5021 16.7656L11.1379 16.2749C11.7002 16.1062 12.2997 16.1062 12.862 16.2749L14.4978 16.7656C14.8084 16.8588 15.1408 16.8488 15.4452 16.7372L15.8668 16.5826C16.2557 16.44 16.6865 16.6397 16.8291 17.0286C16.9717 17.4175 16.772 17.8483 16.3832 17.9909L15.9616 18.1455C15.3527 18.3687 14.6879 18.3887 14.0668 18.2024L12.431 17.7116Z" fill="#F8D8B9"/>
</svg>
