<svg width="161" height="28" viewBox="0 0 161 28" fill="none" xmlns="http://www.w3.org/2000/svg">
<path d="M0 4C0 1.79086 1.79086 0 4 0H148.517C149.854 0 151.103 0.667728 151.845 1.7796L158.518 11.7796C159.415 13.1239 159.415 14.8761 158.518 16.2204L151.845 26.2204C151.103 27.3323 149.854 28 148.517 28H4C1.79086 28 0 26.2091 0 24V4Z" fill="#CA0100"/>
<path d="M22.9473 9.03955V18.2817H21.3604V10.3091H17.2534V18.2817H15.6665V9.03955H22.9473ZM26.248 12.7339V20.9224H24.7183V11.4136H26.1274L26.248 12.7339ZM30.7231 14.7842V14.9175C30.7231 15.4168 30.6639 15.8802 30.5454 16.3076C30.4312 16.7308 30.2598 17.1011 30.0312 17.4185C29.807 17.7316 29.5298 17.9749 29.1997 18.1484C28.8696 18.3219 28.4888 18.4087 28.0571 18.4087C27.6297 18.4087 27.2552 18.3304 26.9336 18.1738C26.6162 18.013 26.3475 17.7866 26.1274 17.4946C25.9074 17.2026 25.7297 16.8599 25.5942 16.4663C25.4631 16.0685 25.37 15.6326 25.3149 15.1587V14.6445C25.37 14.141 25.4631 13.6839 25.5942 13.2734C25.7297 12.863 25.9074 12.5096 26.1274 12.2134C26.3475 11.9172 26.6162 11.6886 26.9336 11.5278C27.251 11.367 27.6213 11.2866 28.0444 11.2866C28.4761 11.2866 28.859 11.3713 29.1934 11.5405C29.5277 11.7056 29.8091 11.9425 30.0376 12.2515C30.2661 12.5562 30.4375 12.9243 30.5518 13.356C30.666 13.7834 30.7231 14.2594 30.7231 14.7842ZM29.1934 14.9175V14.7842C29.1934 14.4668 29.1637 14.1727 29.1045 13.9019C29.0452 13.6268 28.9521 13.3856 28.8252 13.1782C28.6982 12.9709 28.5353 12.8101 28.3364 12.6958C28.1418 12.5773 27.9069 12.5181 27.6318 12.5181C27.361 12.5181 27.1283 12.5646 26.9336 12.6577C26.7389 12.7466 26.576 12.8714 26.4448 13.0322C26.3136 13.193 26.2121 13.3813 26.1401 13.5972C26.0682 13.8088 26.0174 14.0394 25.9878 14.2891V15.5205C26.0386 15.8252 26.1253 16.1045 26.248 16.3584C26.3708 16.6123 26.5443 16.8154 26.7686 16.9678C26.9971 17.1159 27.2891 17.1899 27.6445 17.1899C27.9196 17.1899 28.1545 17.1307 28.3491 17.0122C28.5438 16.8937 28.7025 16.7308 28.8252 16.5234C28.9521 16.3118 29.0452 16.0685 29.1045 15.7935C29.1637 15.5184 29.1934 15.2264 29.1934 14.9175ZM35.0522 18.4087C34.5444 18.4087 34.0853 18.3262 33.6748 18.1611C33.2686 17.9919 32.9215 17.757 32.6338 17.4565C32.3503 17.1561 32.1323 16.8027 31.98 16.3965C31.8276 15.9902 31.7515 15.5522 31.7515 15.0825V14.8286C31.7515 14.2912 31.8298 13.8045 31.9863 13.3687C32.1429 12.9328 32.3608 12.5604 32.6401 12.2515C32.9194 11.9383 33.2495 11.6992 33.6304 11.5342C34.0112 11.3691 34.4238 11.2866 34.8682 11.2866C35.359 11.2866 35.7886 11.3691 36.1567 11.5342C36.5249 11.6992 36.8296 11.932 37.0708 12.2324C37.3162 12.5286 37.4982 12.882 37.6167 13.2925C37.7394 13.703 37.8008 14.1558 37.8008 14.6509V15.3047H32.4941V14.2065H36.29V14.0859C36.2816 13.8109 36.2266 13.5527 36.125 13.3115C36.0277 13.0703 35.8774 12.8757 35.6743 12.7275C35.4712 12.5794 35.2004 12.5054 34.8618 12.5054C34.6079 12.5054 34.3815 12.5604 34.1826 12.6704C33.988 12.7762 33.825 12.9307 33.6938 13.1338C33.5627 13.3369 33.4611 13.5824 33.3892 13.8701C33.3215 14.1536 33.2876 14.4731 33.2876 14.8286V15.0825C33.2876 15.383 33.3278 15.6623 33.4082 15.9204C33.4928 16.1743 33.6156 16.3965 33.7764 16.5869C33.9372 16.7773 34.1318 16.9276 34.3604 17.0376C34.5889 17.1434 34.8491 17.1963 35.1411 17.1963C35.5093 17.1963 35.8372 17.1222 36.125 16.9741C36.4128 16.826 36.6624 16.6165 36.874 16.3457L37.6802 17.1265C37.5321 17.3423 37.3395 17.5496 37.1025 17.7485C36.8656 17.9432 36.5757 18.1019 36.2329 18.2246C35.8944 18.3473 35.5008 18.4087 35.0522 18.4087ZM40.2383 11.4136H41.7681L41.6919 13.832C41.6707 14.5345 41.5903 15.1375 41.4507 15.6411C41.311 16.1447 41.1291 16.57 40.9048 16.917C40.6805 17.2598 40.4266 17.5412 40.1431 17.7612C39.8638 17.9813 39.5697 18.1548 39.2607 18.2817H38.8101V17.0757L39.0259 17.063C39.2078 16.8683 39.3644 16.6737 39.4956 16.479C39.631 16.2801 39.7453 16.0622 39.8384 15.8252C39.9315 15.584 40.0034 15.3026 40.0542 14.981C40.1092 14.6593 40.1452 14.2764 40.1621 13.832L40.2383 11.4136ZM40.6445 11.4136H44.999V18.2817H43.4756V12.7085H40.6445V11.4136ZM38.4609 17.063H45.9385V20.3257H44.4087V18.2817H40.0098V20.3257H38.4546L38.4609 17.063ZM51.645 11.4136V12.6323H48.2935V11.4136H51.645ZM52.8447 11.4136V18.2817H51.3149V11.4136H52.8447ZM47.9189 11.4136H49.4297L49.2456 14.8096C49.2202 15.3132 49.1694 15.7575 49.0933 16.1426C49.0213 16.5234 48.924 16.8514 48.8013 17.1265C48.6785 17.3973 48.5283 17.6174 48.3506 17.7866C48.1729 17.9559 47.9655 18.0807 47.7285 18.1611C47.4915 18.2415 47.2249 18.2817 46.9287 18.2817H46.4526L46.4463 17.0249L46.6875 17.0059C46.8441 16.9932 46.9795 16.953 47.0938 16.8853C47.208 16.8133 47.3053 16.7118 47.3857 16.5806C47.4704 16.4494 47.5381 16.2801 47.5889 16.0728C47.6439 15.8654 47.6862 15.62 47.7158 15.3364C47.7497 15.0529 47.7751 14.7228 47.792 14.3462L47.9189 11.4136ZM54.1777 14.9238V14.7778C54.1777 14.2827 54.2497 13.8236 54.3936 13.4004C54.5374 12.973 54.7448 12.6027 55.0156 12.2896C55.2907 11.9722 55.625 11.7267 56.0186 11.5532C56.4163 11.3755 56.8649 11.2866 57.3643 11.2866C57.8678 11.2866 58.3164 11.3755 58.71 11.5532C59.1077 11.7267 59.4442 11.9722 59.7192 12.2896C59.9943 12.6027 60.2038 12.973 60.3477 13.4004C60.4915 13.8236 60.5635 14.2827 60.5635 14.7778V14.9238C60.5635 15.4189 60.4915 15.8781 60.3477 16.3013C60.2038 16.7244 59.9943 17.0947 59.7192 17.4121C59.4442 17.7253 59.1099 17.9707 58.7163 18.1484C58.3228 18.3219 57.8763 18.4087 57.377 18.4087C56.8734 18.4087 56.4227 18.3219 56.0249 18.1484C55.6313 17.9707 55.297 17.7253 55.022 17.4121C54.7469 17.0947 54.5374 16.7244 54.3936 16.3013C54.2497 15.8781 54.1777 15.4189 54.1777 14.9238ZM55.7075 14.7778V14.9238C55.7075 15.2327 55.7393 15.5247 55.8027 15.7998C55.8662 16.0749 55.9657 16.3161 56.1011 16.5234C56.2365 16.7308 56.41 16.8937 56.6216 17.0122C56.8332 17.1307 57.085 17.1899 57.377 17.1899C57.6605 17.1899 57.9059 17.1307 58.1133 17.0122C58.3249 16.8937 58.4984 16.7308 58.6338 16.5234C58.7692 16.3161 58.8687 16.0749 58.9321 15.7998C58.9998 15.5247 59.0337 15.2327 59.0337 14.9238V14.7778C59.0337 14.4731 58.9998 14.1854 58.9321 13.9146C58.8687 13.6395 58.7671 13.3962 58.6274 13.1846C58.492 12.973 58.3185 12.8079 58.1069 12.6895C57.8996 12.5667 57.652 12.5054 57.3643 12.5054C57.0765 12.5054 56.8268 12.5667 56.6152 12.6895C56.4079 12.8079 56.2365 12.973 56.1011 13.1846C55.9657 13.3962 55.8662 13.6395 55.8027 13.9146C55.7393 14.1854 55.7075 14.4731 55.7075 14.7778ZM63.9849 15.5078L61.2427 11.4136H63.1216L64.7212 14.1177H66.0605L65.8638 15.5078H63.9849ZM64.7593 15.2856L63.001 18.2817H61.1221L63.6104 14.416L64.7593 15.2856ZM66.981 11.4136V18.2817H65.4575V11.4136H66.981ZM71.2148 11.4136L68.4727 15.5078H66.5874L66.3843 14.1177H67.73L69.3296 11.4136H71.2148ZM69.4502 18.2817L67.6855 15.2856L68.8726 14.416L71.3481 18.2817H69.4502ZM75.2202 18.4087C74.7124 18.4087 74.2533 18.3262 73.8428 18.1611C73.4365 17.9919 73.0895 17.757 72.8018 17.4565C72.5182 17.1561 72.3003 16.8027 72.1479 16.3965C71.9956 15.9902 71.9194 15.5522 71.9194 15.0825V14.8286C71.9194 14.2912 71.9977 13.8045 72.1543 13.3687C72.3109 12.9328 72.5288 12.5604 72.8081 12.2515C73.0874 11.9383 73.4175 11.6992 73.7983 11.5342C74.1792 11.3691 74.5918 11.2866 75.0361 11.2866C75.527 11.2866 75.9565 11.3691 76.3247 11.5342C76.6929 11.6992 76.9976 11.932 77.2388 12.2324C77.4842 12.5286 77.6662 12.882 77.7847 13.2925C77.9074 13.703 77.9688 14.1558 77.9688 14.6509V15.3047H72.6621V14.2065H76.458V14.0859C76.4495 13.8109 76.3945 13.5527 76.293 13.3115C76.1956 13.0703 76.0454 12.8757 75.8423 12.7275C75.6392 12.5794 75.3683 12.5054 75.0298 12.5054C74.7759 12.5054 74.5495 12.5604 74.3506 12.6704C74.1559 12.7762 73.993 12.9307 73.8618 13.1338C73.7306 13.3369 73.6291 13.5824 73.5571 13.8701C73.4894 14.1536 73.4556 14.4731 73.4556 14.8286V15.0825C73.4556 15.383 73.4958 15.6623 73.5762 15.9204C73.6608 16.1743 73.7835 16.3965 73.9443 16.5869C74.1051 16.7773 74.2998 16.9276 74.5283 17.0376C74.7568 17.1434 75.0171 17.1963 75.3091 17.1963C75.6772 17.1963 76.0052 17.1222 76.293 16.9741C76.5807 16.826 76.8304 16.6165 77.042 16.3457L77.8481 17.1265C77.7 17.3423 77.5075 17.5496 77.2705 17.7485C77.0335 17.9432 76.7437 18.1019 76.4009 18.2246C76.0623 18.3473 75.6688 18.4087 75.2202 18.4087ZM83.853 14.2827V15.4888H80.2983V14.2827H83.853ZM80.7427 11.4136V18.2817H79.2129V11.4136H80.7427ZM84.9575 11.4136V18.2817H83.4277V11.4136H84.9575ZM88.1694 16.0474L90.8672 11.4136H92.397V18.2817H90.8672V13.6416L88.1694 18.2817H86.6396V11.4136H88.1694V16.0474ZM97.0435 18.4087C96.5356 18.4087 96.0765 18.3262 95.666 18.1611C95.2598 17.9919 94.9128 17.757 94.625 17.4565C94.3415 17.1561 94.1235 16.8027 93.9712 16.3965C93.8188 15.9902 93.7427 15.5522 93.7427 15.0825V14.8286C93.7427 14.2912 93.821 13.8045 93.9775 13.3687C94.1341 12.9328 94.3521 12.5604 94.6313 12.2515C94.9106 11.9383 95.2407 11.6992 95.6216 11.5342C96.0024 11.3691 96.415 11.2866 96.8594 11.2866C97.3503 11.2866 97.7798 11.3691 98.1479 11.5342C98.5161 11.6992 98.8208 11.932 99.062 12.2324C99.3075 12.5286 99.4894 12.882 99.6079 13.2925C99.7306 13.703 99.792 14.1558 99.792 14.6509V15.3047H94.4854V14.2065H98.2812V14.0859C98.2728 13.8109 98.2178 13.5527 98.1162 13.3115C98.0189 13.0703 97.8687 12.8757 97.6655 12.7275C97.4624 12.5794 97.1916 12.5054 96.853 12.5054C96.5991 12.5054 96.3727 12.5604 96.1738 12.6704C95.9792 12.7762 95.8162 12.9307 95.6851 13.1338C95.5539 13.3369 95.4523 13.5824 95.3804 13.8701C95.3127 14.1536 95.2788 14.4731 95.2788 14.8286V15.0825C95.2788 15.383 95.319 15.6623 95.3994 15.9204C95.484 16.1743 95.6068 16.3965 95.7676 16.5869C95.9284 16.7773 96.123 16.9276 96.3516 17.0376C96.5801 17.1434 96.8403 17.1963 97.1323 17.1963C97.5005 17.1963 97.8285 17.1222 98.1162 16.9741C98.404 16.826 98.6536 16.6165 98.8652 16.3457L99.6714 17.1265C99.5233 17.3423 99.3307 17.5496 99.0938 17.7485C98.8568 17.9432 98.5669 18.1019 98.2241 18.2246C97.8856 18.3473 97.492 18.4087 97.0435 18.4087ZM105.467 11.4136H106.997L106.92 13.832C106.899 14.5345 106.819 15.1375 106.679 15.6411C106.54 16.1447 106.358 16.57 106.133 16.917C105.909 17.2598 105.655 17.5412 105.372 17.7612C105.092 17.9813 104.798 18.1548 104.489 18.2817H104.039V17.0757L104.254 17.063C104.436 16.8683 104.593 16.6737 104.724 16.479C104.86 16.2801 104.974 16.0622 105.067 15.8252C105.16 15.584 105.232 15.3026 105.283 14.981C105.338 14.6593 105.374 14.2764 105.391 13.832L105.467 11.4136ZM105.873 11.4136H110.228V18.2817H108.704V12.7085H105.873V11.4136ZM103.689 17.063H111.167V20.3257H109.637V18.2817H105.238V20.3257H103.683L103.689 17.063ZM116.912 14.2827V15.4888H113.357V14.2827H116.912ZM113.801 11.4136V18.2817H112.271V11.4136H113.801ZM118.016 11.4136V18.2817H116.486V11.4136H118.016ZM121.095 14.9238H122.682L120.733 18.2817H119.152L121.095 14.9238ZM122.212 11.4136H125.157V18.2817H123.634V12.6196H122.212C121.924 12.6196 121.687 12.6704 121.501 12.772C121.315 12.8693 121.177 12.9984 121.088 13.1592C121 13.3158 120.955 13.4766 120.955 13.6416C120.955 13.8066 120.995 13.9653 121.076 14.1177C121.16 14.27 121.289 14.3949 121.463 14.4922C121.641 14.5895 121.863 14.6382 122.129 14.6382H124.148V15.7554H122.129C121.706 15.7554 121.327 15.7025 120.993 15.5967C120.659 15.4867 120.375 15.3364 120.143 15.146C119.91 14.9513 119.732 14.7249 119.609 14.4668C119.487 14.2044 119.425 13.9188 119.425 13.6099C119.425 13.2925 119.489 13.0005 119.616 12.7339C119.743 12.4673 119.925 12.2345 120.162 12.0356C120.403 11.8368 120.695 11.6844 121.038 11.5786C121.385 11.4686 121.776 11.4136 122.212 11.4136Z" fill="white"/>
</svg>
