<svg width="14" height="10" viewBox="0 0 14 10" fill="none" xmlns="http://www.w3.org/2000/svg">
<path d="M7.37041 4.81473C7.24789 4.79709 7.12481 4.785 7.00204 4.785C6.19588 4.785 5.39027 5.11423 4.95804 5.78945C4.31375 6.79632 4.71741 8.13186 5.8333 8.71291C6.20082 8.90446 6.6042 8.94736 6.99997 8.94736C7.80614 8.94736 8.60968 8.57 9.04167 7.89473C9.52934 7.13264 9.40652 6.25814 8.84479 5.60236L9.62501 2.89474L7.37041 4.81473ZM8.01002 7.41632C7.80236 7.74105 7.41651 7.89473 6.99997 7.89473C6.79438 7.89473 6.59689 7.89527 6.41694 7.80132C5.85985 7.51132 5.66852 6.86632 5.98993 6.36395C6.19764 6.03923 6.58556 5.83736 7.00234 5.83736C7.20764 5.83736 7.40306 5.885 7.58306 5.97868C8.1401 6.26895 8.33143 6.91368 8.01002 7.41632ZM6.99997 0C3.13396 0 0 3.00868 0 6.57895C0 7.88423 0.420291 8.98395 1.14071 10H4.08333V8.94736H1.75C1.32796 8.18973 1.16667 7.43973 1.16667 6.57895C1.16667 3.60842 3.7835 1.05263 6.99997 1.05263C10.2165 1.05263 12.8333 3.60842 12.8333 6.57895C12.8333 7.43973 12.672 8.18973 12.25 8.94736H9.91665V10H12.8333C13.5537 8.98395 14 7.88423 14 6.57895C14 3.00868 10.866 0 6.99997 0Z" fill="#262626"/>
</svg>
