<svg width="22" height="21" viewBox="0 0 22 21" fill="none" xmlns="http://www.w3.org/2000/svg">
<path d="M12.8589 2.9815C14.9325 7.49445 17.0228 12.0074 19.1131 16.5535C19.18 16.4871 19.2301 16.4374 19.2803 16.3876C19.899 15.4585 20.3505 14.4796 20.6515 13.4011C20.9191 12.4554 21.0529 11.493 21.0194 10.5307C20.9693 8.30744 20.2669 6.28325 18.9124 4.50794C18.1097 3.44607 17.1231 2.5833 15.986 1.90304C15.0997 1.37211 14.1465 0.957316 13.1098 0.741624C12.9425 0.708441 12.7753 0.675257 12.6081 0.642074C12.491 0.60889 12.4241 0.658665 12.374 0.758216C11.9392 1.60439 11.5044 2.45057 11.0696 3.31334C10.3171 4.79 9.56462 6.25007 8.82883 7.72673C8.26027 8.83837 7.69171 9.96661 7.12315 11.0783C6.45426 12.389 5.78537 13.7163 5.09975 15.0271C4.6148 15.9894 4.12985 16.9517 3.62818 17.914C3.54457 18.08 3.5613 18.1795 3.7118 18.2956C4.0128 18.5279 4.3138 18.7768 4.59808 19.0091C4.69841 19.092 4.74858 19.0755 4.81547 18.9593C5.30042 17.997 5.76864 17.0347 6.25359 16.0724C6.92249 14.7284 7.6081 13.3679 8.277 12.024C8.94589 10.6635 9.63151 9.31953 10.3004 7.95901C11.0195 6.53213 11.7385 5.10524 12.4409 3.66176C12.5579 3.42948 12.6582 3.21379 12.7753 2.9815C12.8255 2.9815 12.8422 2.9815 12.8589 2.9815Z" fill="white"/>
<path d="M2.37326 16.6033C2.50704 16.3544 2.62409 16.1221 2.75787 15.8732C3.66088 14.0813 4.56388 12.2894 5.46689 10.5141C6.25284 8.95448 7.02207 7.39487 7.80802 5.83525C8.59397 4.25903 9.39664 2.68282 10.1826 1.09002C10.2662 0.940696 10.3498 0.774779 10.4167 0.625453C10.4836 0.476128 10.4501 0.409761 10.2829 0.442945C9.6642 0.525903 9.02875 0.575678 8.41002 0.708412C6.78796 1.05684 5.36656 1.78687 4.09566 2.83215C2.82476 3.87743 1.87159 5.17158 1.21942 6.68142C0.834803 7.57737 0.583968 8.50651 0.466911 9.46883C0.366577 10.4477 0.366577 11.4101 0.533801 12.389C0.751191 13.6831 1.20269 14.8777 1.87159 15.9894C1.97192 16.1719 2.08898 16.3378 2.20603 16.5037C2.23948 16.5535 2.2562 16.6033 2.27292 16.653C2.32309 16.6364 2.35654 16.6198 2.37326 16.6033Z" fill="white"/>
<path d="M17.3719 17.7979C16.887 16.7526 16.402 15.6908 15.9171 14.6289H9.07766C8.67632 15.4253 8.25826 16.2217 7.87365 17.0347C7.43887 17.9141 7.03753 18.81 6.61947 19.706C6.50242 19.9548 6.53586 19.988 6.7867 20.071C7.32181 20.2369 7.8402 20.436 8.39204 20.5521C9.39538 20.7844 10.4154 20.8508 11.4522 20.7347C11.9205 20.6849 12.3887 20.6517 12.8402 20.5355C13.5091 20.353 14.178 20.1208 14.8301 19.8387C15.7499 19.4405 16.5525 18.8598 17.2883 18.2127C17.4054 18.0634 17.4555 17.9804 17.3719 17.7979Z" fill="white"/>
<path d="M15.0825 12.7874C14.7146 11.9578 14.33 11.1448 13.9621 10.3153C13.5775 9.48567 13.2096 8.67268 12.825 7.84309C12.7915 7.76014 12.7414 7.67718 12.6745 7.56104C12.5073 7.87628 12.3735 8.14174 12.2397 8.40721C12.1059 8.67268 11.9721 8.95474 11.8216 9.2202C11.2196 10.4148 10.6176 11.6094 10.0156 12.7874H15.0825Z" fill="white"/>
</svg>
