<svg width="89" height="60" viewBox="0 0 89 60" fill="none" xmlns="http://www.w3.org/2000/svg">
<rect width="89" height="60" rx="10" fill="#55BC6B"/>
<path d="M38.9277 33.4277V36.0996H20.4355V34.1836L31.8965 16.4473H34.5508L31.7031 21.5801L24.127 33.4277H38.9277ZM35.3594 16.4473V42.041H32.1074V16.4473H35.3594ZM42.2852 40.3184C42.2852 39.7676 42.4551 39.3047 42.7949 38.9297C43.1465 38.543 43.6504 38.3496 44.3066 38.3496C44.9629 38.3496 45.4609 38.543 45.8008 38.9297C46.1523 39.3047 46.3281 39.7676 46.3281 40.3184C46.3281 40.8574 46.1523 41.3145 45.8008 41.6895C45.4609 42.0645 44.9629 42.252 44.3066 42.252C43.6504 42.252 43.1465 42.0645 42.7949 41.6895C42.4551 41.3145 42.2852 40.8574 42.2852 40.3184ZM55.4863 29.8594L52.8848 29.1914L54.168 16.4473H67.2988V19.4531H56.9277L56.1543 26.4141C56.623 26.1445 57.2148 25.8926 57.9297 25.6582C58.6562 25.4238 59.4883 25.3066 60.4258 25.3066C61.6094 25.3066 62.6699 25.5117 63.6074 25.9219C64.5449 26.3203 65.3418 26.8945 65.998 27.6445C66.666 28.3945 67.1758 29.2969 67.5273 30.3516C67.8789 31.4062 68.0547 32.584 68.0547 33.8848C68.0547 35.1152 67.8848 36.2461 67.5449 37.2773C67.2168 38.3086 66.7188 39.2109 66.0508 39.9844C65.3828 40.7461 64.5391 41.3379 63.5195 41.7598C62.5117 42.1816 61.3223 42.3926 59.9512 42.3926C58.9199 42.3926 57.9414 42.252 57.0156 41.9707C56.1016 41.6777 55.2812 41.2383 54.5547 40.6523C53.8398 40.0547 53.2539 39.3164 52.7969 38.4375C52.3516 37.5469 52.0703 36.5039 51.9531 35.3086H55.0469C55.1875 36.2695 55.4688 37.0781 55.8906 37.7344C56.3125 38.3906 56.8633 38.8887 57.543 39.2285C58.2344 39.5566 59.0371 39.7207 59.9512 39.7207C60.7246 39.7207 61.4102 39.5859 62.0078 39.3164C62.6055 39.0469 63.1094 38.6602 63.5195 38.1562C63.9297 37.6523 64.2402 37.043 64.4512 36.3281C64.6738 35.6133 64.7852 34.8105 64.7852 33.9199C64.7852 33.1113 64.6738 32.3613 64.4512 31.6699C64.2285 30.9785 63.8945 30.375 63.4492 29.8594C63.0156 29.3438 62.4824 28.9453 61.8496 28.6641C61.2168 28.3711 60.4902 28.2246 59.6699 28.2246C58.5801 28.2246 57.7539 28.3711 57.1914 28.6641C56.6406 28.957 56.0723 29.3555 55.4863 29.8594Z" fill="white"/>
</svg>
