<svg width="10" height="11" viewBox="0 0 10 11" fill="none" xmlns="http://www.w3.org/2000/svg">
<path d="M9.55764 2.585L9.56671 2.57583L7.30912 0.305565L6.66672 0.953335L7.94546 2.24277C7.37581 2.46277 6.96969 3.01584 6.96969 3.66667C6.96969 4.51 7.64849 5.19445 8.48487 5.19445C8.69998 5.19445 8.90606 5.1486 9.09092 5.0661V9.4722C9.09092 9.80835 8.81819 10.0834 8.48487 10.0834C8.15155 10.0834 7.87882 9.80835 7.87882 9.47225V6.72225C7.87882 6.04695 7.33644 5.5 6.66672 5.5H6.06066V1.22223C6.06062 0.546935 5.51818 0 4.84851 0H1.21213C0.542417 0 0 0.546935 0 1.22223V11H6.06062V6.41665H6.96969V9.47225C6.96969 10.3155 7.64849 11 8.48487 11C9.3212 11 10 10.3155 10 9.47225V3.66667C10 3.245 9.83036 2.86307 9.55764 2.585ZM4.84851 4.27777H1.21213V1.22223H4.84851V4.27777ZM8.48487 4.27777C8.15155 4.27777 7.87882 4.00277 7.87882 3.66667C7.87882 3.33056 8.15155 3.05557 8.48487 3.05557C8.81819 3.05557 9.09092 3.33056 9.09092 3.66667C9.09092 4.00277 8.81819 4.27777 8.48487 4.27777Z" fill="#262626"/>
</svg>
