<svg width="10" height="10" viewBox="0 0 10 10" fill="none" xmlns="http://www.w3.org/2000/svg">
<path d="M7.71149 2.02813L8.03264 1.70697L8.39968 2.07402L9.04201 1.43169L7.66561 0.0552979L7.02329 0.697624L7.39033 1.06465L6.97741 1.47757C4.77518 0.147043 1.93062 0.835242 0.645988 3.03748C-0.638642 5.23971 0.0495347 7.99251 2.2059 9.32303C4.36226 10.6536 7.2068 9.96536 8.49145 7.76312C9.63844 5.88204 9.31729 3.49629 7.71149 2.02813ZM4.59164 8.58896C2.80233 8.58896 1.38006 7.16669 1.38006 5.37737C1.38006 3.58806 2.80233 2.16577 4.59164 2.16577V5.37735H7.80323C7.80325 7.16667 6.38096 8.58896 4.59164 8.58896Z" fill="#262626"/>
</svg>
