<svg width="16" height="16" viewBox="0 0 16 16" fill="none" xmlns="http://www.w3.org/2000/svg">
<g clip-path="url(#clip0_1291_2071)">
<path fill-rule="evenodd" clip-rule="evenodd" d="M8.71478 0.778903C9.389 0.656991 10.0631 0.629344 10.7077 0.708407C11.6297 0.871205 11.8785 1.36612 11.7583 2.23314C11.6382 3.10016 11.5346 3.56608 11.1993 4.53373C10.6104 6.2332 8.82094 7.73507 6.79191 7.68748C5.03054 7.64616 3.39806 8.50208 2.24034 9.78622C1.73085 10.3513 1.47912 10.7756 1.30827 11.4625C1.25621 11.6718 1.20446 11.8584 1.1525 11.9986C1.08748 12.174 0.867896 12.1908 0.799967 11.9986C0.461403 11.0407 0.415139 9.96224 0.610202 8.88348C0.934546 7.08976 1.9314 5.21794 3.49032 3.65902C5.04924 2.10011 6.92106 1.10325 8.71478 0.778903Z" fill="#F8D8B9"/>
<path fill-rule="evenodd" clip-rule="evenodd" d="M1.99347 13.8245L1.99266 13.8265C1.33312 13.3125 2.29959 11.8017 2.99576 10.9265C3.84873 9.77864 5.23482 9.10437 6.70982 9.18522C9.43811 9.33476 11.9044 7.56995 12.6434 4.93939C12.7792 4.44101 12.892 3.4559 12.9032 2.92712C12.92 2.13068 12.9381 1.51409 13.3586 1.86918C13.6431 2.15374 14.0232 2.58294 14.151 2.77528C16.4588 6.2507 16.0572 10.0594 13.6786 12.7373C11.3804 15.3247 5.5715 16.695 1.99347 13.8245Z" fill="#F8D8B9"/>
</g>
<defs>
<clipPath id="clip0_1291_2071">
<rect width="16" height="16" fill="white"/>
</clipPath>
</defs>
</svg>
