<svg width="60" height="32" viewBox="0 0 60 32" fill="none" xmlns="http://www.w3.org/2000/svg">
<path fill-rule="evenodd" clip-rule="evenodd" d="M40.0717 14.2162C40.3646 13.9233 40.8395 13.9233 41.1324 14.2162L43.6131 16.6969C43.8279 16.9117 44.1762 16.9117 44.391 16.6969L46.8717 14.2162C47.1646 13.9233 47.6395 13.9233 47.9324 14.2162C48.2253 14.5091 48.2253 14.9839 47.9324 15.2768L45.4516 17.7576C44.651 18.5582 43.3531 18.5582 42.5525 17.7576L40.0717 15.2768C39.7788 14.9839 39.7788 14.5091 40.0717 14.2162Z" fill="#F8D8B9"/>
<path fill-rule="evenodd" clip-rule="evenodd" d="M19.9927 7.52475C21.2353 7.52475 22.2427 8.53211 22.2427 9.77475C22.2427 11.0174 21.2353 12.0247 19.9927 12.0247C18.75 12.0247 17.7427 11.0174 17.7427 9.77475C17.7427 8.53211 18.75 7.52475 19.9927 7.52475ZM24.4927 9.77475C24.4927 7.28947 22.478 5.27475 19.9927 5.27475C17.5074 5.27475 15.4927 7.28947 15.4927 9.77475C15.4927 12.26 17.5074 14.2747 19.9927 14.2747C22.478 14.2747 24.4927 12.26 24.4927 9.77475ZM20 18.85C23.6144 18.85 26.375 21.3438 26.375 24.775C26.375 24.8164 26.3415 24.8499 26.3001 24.8499H13.6999C13.6585 24.8499 13.625 24.8164 13.625 24.775C13.625 21.3438 16.3856 18.85 20 18.85ZM28.625 24.775C28.625 19.9219 24.6698 16.6 20 16.6C15.3302 16.6 11.375 19.9219 11.375 24.775C11.375 26.059 12.4159 27.0999 13.6999 27.0999H26.3001C27.5841 27.0999 28.625 26.059 28.625 24.775Z" fill="#F8D8B9"/>
</svg>
