<svg width="14" height="16" viewBox="0 0 14 16" fill="none" xmlns="http://www.w3.org/2000/svg">
<path d="M12.6322 12.0807C12.3835 11.9577 12.1217 11.8482 11.8482 11.7507C12.4099 11.3502 12.8721 10.8868 13.2392 10.3408C13.8097 9.49184 14.0554 8.66838 13.9896 7.82242C13.915 6.86847 13.2626 6.21751 12.3631 6.20401C12.0749 6.20401 11.775 6.26701 11.4532 6.393L11.4372 6.3975C10.9764 5.97002 10.4074 5.78403 9.86036 5.64604C9.53125 5.56354 9.19483 5.49904 8.85548 5.44505C8.82476 5.47955 8.79697 5.51555 8.76625 5.55004C8.58049 5.76303 8.39326 5.97752 8.21335 6.19801C8.12266 6.3075 8.04953 6.408 7.98224 6.50249C8.56147 6.55949 9.13778 6.65699 9.70092 6.80398C9.93203 6.86398 10.1397 6.94047 10.3504 7.04247C9.98908 7.21496 9.57513 7.34245 9.09244 7.42794C8.62437 7.51194 8.16654 7.56294 7.7131 7.59594C7.53173 7.60944 7.35181 7.61994 7.17336 7.62743C7.01393 6.92847 7.37522 6.375 7.80818 5.84853C8.2192 5.34755 8.6624 4.87508 9.06465 4.3666C9.46397 3.86263 9.74627 3.29566 9.75212 2.6222C9.75651 1.44626 8.64631 0.159324 7.49809 0.00483163C7.37522 -0.0116675 7.26698 0.0108314 7.20262 0.123326C7.1368 0.23732 7.16605 0.354314 7.25966 0.439809C7.3957 0.567303 7.54343 0.681297 7.68092 0.805791C8.59658 1.63825 8.69312 2.38221 7.97785 3.39916C7.62095 3.90613 7.21286 4.3726 6.82816 4.85858C6.4932 5.28156 6.23869 5.74803 6.11875 6.28351C6.01343 6.75148 6.07926 7.23296 6.27672 7.62144C6.07926 7.61094 5.88179 7.59444 5.68579 7.57344C5.10509 7.51344 4.53464 7.41295 3.9832 7.25995C3.80767 7.21196 3.60435 7.14746 3.39372 7.04247C3.76086 6.85948 4.12361 6.76798 4.40592 6.70798C4.78915 6.62699 5.17091 6.56699 5.55122 6.52349C5.56 6.402 5.57901 6.2805 5.60534 6.16051C5.6697 5.87403 5.7677 5.59804 5.90081 5.32806C5.51173 5.35805 5.11826 5.40155 4.72186 5.46305C3.97881 5.58004 3.3908 5.75553 2.873 6.01352C2.59801 6.15001 2.31717 6.3165 2.12555 6.61949C1.81253 7.11446 1.62677 7.67693 1.57265 8.2919C1.46733 9.49034 1.76427 10.6648 2.36105 11.6487C1.97197 11.7717 1.61068 11.9127 1.27426 12.0807C0.876401 12.2772 0.319109 12.5442 0.127494 13.0122C-0.19869 13.8101 0.121643 14.3081 0.852997 14.7101C2.40201 15.5605 4.52147 15.9925 6.93348 15.9985V16C6.93933 16 6.94518 16 6.95103 16C6.95688 16 6.96273 16 6.96858 16V15.9985C9.38205 15.9925 11.5001 15.5605 13.0491 14.7101C13.7804 14.3096 14.1008 13.8101 13.7746 13.0122C13.5873 12.5442 13.0301 12.2772 12.6322 12.0807ZM12.3748 7.38445C12.3791 7.38445 12.3952 7.38445 12.3996 7.38445C12.6556 7.39345 12.7755 7.50444 12.8136 7.76693C12.8648 8.11941 12.7697 8.45989 12.6805 8.71638C12.5386 9.13186 12.3397 9.51884 12.0778 9.89082C12.1159 9.71083 12.1436 9.53534 12.1612 9.36134C12.2358 8.61888 12.1846 8.00991 12.0003 7.45194C12.1305 7.41745 12.2548 7.38445 12.3748 7.38445ZM2.73697 8.00242C3.85594 8.53489 5.12557 8.78388 6.72285 8.78388C6.7287 8.78388 6.73455 8.78388 6.7404 8.78388C6.91739 8.78388 7.10169 8.78088 7.29623 8.77488C7.48492 8.76888 7.68092 8.75987 7.89155 8.74938C8.82915 8.69838 9.65558 8.53789 10.4206 8.2634C10.6224 8.19141 10.8184 8.10141 11.0042 7.99941C11.2792 9.16935 10.9033 10.8943 9.63218 12.0237C8.86572 12.7047 7.8857 13.0797 6.87351 13.0797C6.01929 13.0797 5.19578 12.8172 4.49222 12.3192C2.90225 11.1942 2.47222 9.31785 2.73697 8.00242ZM6.99638 14.8256C6.99052 14.8256 6.96712 14.8256 6.96127 14.8256C5.12265 14.8766 1.7394 14.0456 1.7511 13.5101C1.75695 13.2401 2.69747 12.9207 3.26793 12.7722C3.64092 13.1261 4.06657 13.4306 4.53756 13.6646C4.89885 13.8446 5.24844 13.9691 5.60534 14.0471C5.92714 14.1176 6.42884 14.2016 6.99491 14.2016C7.48346 14.2016 7.93397 14.1386 8.33037 14.0141C9.15972 13.7666 9.8823 13.3301 10.4996 12.7362C11.0378 12.8622 12.1524 13.2176 12.1583 13.5101C12.17 14.0471 8.835 14.8766 6.99638 14.8256Z" fill="#F8D8B9"/>
</svg>
