<svg width="15" height="16" viewBox="0 0 15 16" fill="none" xmlns="http://www.w3.org/2000/svg">
<path d="M0.966705 15.949V0.510493H6.62648C7.6491 0.496453 8.66433 0.685746 9.61318 1.06737C10.562 1.449 11.4256 2.01536 12.1537 2.73356C12.8818 3.45175 13.46 4.30746 13.8546 5.25098C14.2492 6.1945 14.4524 7.20703 14.4524 8.22975C14.4524 9.25247 14.2492 10.265 13.8546 11.2085C13.46 12.152 12.8818 13.0078 12.1537 13.726C11.4256 14.4441 10.562 15.0105 9.61318 15.3921C8.66433 15.7738 7.6491 15.9631 6.62648 15.949H0.966705ZM6.62648 12.8616C7.24165 12.8725 7.85283 12.7608 8.42434 12.5329C8.99585 12.305 9.51624 11.9656 9.95514 11.5344C10.394 11.1032 10.7426 10.5889 10.9806 10.0215C11.2186 9.45412 11.3411 8.84502 11.3411 8.22975C11.3411 7.61449 11.2186 7.00538 10.9806 6.438C10.7426 5.87062 10.394 5.35632 9.95514 4.92513C9.51624 4.49394 8.99585 4.1545 8.42434 3.92663C7.85283 3.69875 7.24165 3.587 6.62648 3.59791H4.05412V12.8616H6.62648Z" fill="black"/>
</svg>
