<svg width="17" height="16" viewBox="0 0 17 16" fill="none" xmlns="http://www.w3.org/2000/svg">
<path d="M8.54289 15.9493C7.01565 15.9493 5.52272 15.4963 4.25299 14.6476C2.98326 13.7989 1.99377 12.5927 1.40972 11.1816C0.825673 9.77041 0.673301 8.21773 0.971887 6.71996C1.27047 5.22219 2.0066 3.84664 3.08713 2.76733C4.16766 1.68801 5.54405 0.953446 7.04216 0.656555C8.54026 0.359665 10.0928 0.513792 11.5033 1.09944C12.9137 1.68508 14.1188 2.67593 14.9661 3.94663C15.8133 5.21732 16.2646 6.71076 16.2629 8.238C16.2602 10.2838 15.4457 12.245 13.9982 13.6908C12.5508 15.1366 10.5887 15.9489 8.54289 15.9493ZM3.91177 8.238C3.91378 9.15386 4.18723 10.0486 4.69755 10.8091C5.20787 11.5696 5.93217 12.1618 6.77892 12.5108C7.62567 12.8598 8.55688 12.95 9.45488 12.77C10.3529 12.59 11.1774 12.1479 11.8242 11.4994C12.471 10.851 12.9111 10.0254 13.0888 9.12695C13.2666 8.2285 13.174 7.29752 12.8229 6.45165C12.4717 5.60578 11.8777 4.88297 11.1159 4.37456C10.3542 3.86615 9.45876 3.59495 8.54289 3.59524C7.31448 3.59717 6.13699 4.0863 5.26878 4.95533C4.40057 5.82436 3.91254 7.00231 3.91177 8.23072V8.238Z" fill="black"/>
</svg>
