<svg width="161" height="54" viewBox="0 0 161 54" fill="none" xmlns="http://www.w3.org/2000/svg">
<g filter="url(#filter0_d_1291_2061)">
<rect x="10" y="10" width="34" height="34" fill="#FCECDC"/>
</g>
<path fill-rule="evenodd" clip-rule="evenodd" d="M31.4775 35.1625C31.6668 35.1625 31.8182 35.3087 31.8182 35.4913C31.8182 36.1409 31.8182 37.5354 31.8182 37.5374V37.5395C31.8035 38.4813 30.9811 39.2912 30.0177 39.3298C30.0156 39.3298 30.0135 39.3298 30.0114 39.3298C26.9657 39.3684 23.9201 39.3684 20.8744 39.3298C20.8723 39.3298 20.8702 39.3298 20.866 39.3298C19.9468 39.2933 19.1559 38.5625 19.0718 37.6856C19.0718 37.6836 19.0718 37.6816 19.0718 37.6795C19.0234 36.9569 19.0045 36.2282 19.0003 35.4913C19.0003 35.4041 19.0361 35.3208 19.0992 35.2599C19.1623 35.197 19.2506 35.1625 19.341 35.1625C21.1541 35.1625 29.6665 35.1625 31.4775 35.1625ZM32.7248 31.5575C32.7248 31.3362 32.7269 31.2733 33.0171 31.2327C33.3242 31.1881 33.7933 31.1231 34.0015 31.1109C34.0604 31.1089 34.0604 31.1089 34.1193 31.1109C35.3308 31.1637 36.3846 32.1604 36.4309 33.3681C36.4561 35.2112 35.7073 37.0239 33.9405 37.7445C33.6502 37.8561 33.1959 38.0388 32.8972 38.1586C32.8362 38.185 32.7647 38.1748 32.7121 38.1362C32.6596 38.0977 32.6301 38.0347 32.6385 37.9698C32.6638 37.7668 32.6953 37.5131 32.7121 37.373C32.7206 37.306 32.7668 37.2492 32.832 37.2269C33.3621 37.0401 33.8858 36.8534 34.3128 36.5347C35.2467 35.8384 35.5412 34.6835 35.5243 33.3904C35.4949 32.6171 34.7503 31.8904 33.9636 31.9939L33.9384 31.998C33.6713 32.0528 33.4063 32.1116 33.1412 32.1705C33.0403 32.1928 32.9645 32.1949 32.8531 32.1076C32.7248 32.0101 32.7248 31.9513 32.7248 31.8518C32.7248 31.7524 32.7248 31.6488 32.7248 31.5575ZM31.4775 30.2401C31.5679 30.2401 31.6542 30.2746 31.7194 30.3355C31.7825 30.3984 31.8182 30.4817 31.8182 30.569C31.8182 31.0135 31.8182 31.7686 31.8182 31.8559C31.8182 31.862 31.8182 31.8701 31.8161 31.8762C31.8161 31.8924 31.8161 31.9087 31.8161 31.9229C31.8161 31.931 31.8182 31.9371 31.8182 31.9452C31.8182 32.0589 31.8182 33.3397 31.8182 33.9568C31.8182 34.1374 31.6668 34.2836 31.4775 34.2836C29.6686 34.2856 21.171 34.2876 19.3495 34.2876C19.259 34.2876 19.1707 34.2511 19.1076 34.1902C19.0445 34.1273 19.0087 34.042 19.0108 33.9547C19.0276 32.8282 19.0592 31.6955 19.0655 30.5669C19.0655 30.3863 19.219 30.2401 19.4062 30.2401C21.2088 30.2401 29.6707 30.2401 31.4775 30.2401ZM32.3945 29.3835C32.4934 29.3774 32.5923 29.3713 32.6911 29.3632C32.9414 29.3328 32.954 28.8152 32.6827 28.7949C27.8618 28.6812 23.0388 28.7949 18.2157 28.7949C17.9381 28.801 17.9234 29.345 18.201 29.3653C18.3146 29.3673 18.4282 29.3693 18.5418 29.3734C18.5649 29.3693 18.588 29.3653 18.6133 29.3653C18.6722 29.3653 18.7921 29.3653 18.7921 29.3653L32.1022 29.3571C32.1022 29.3571 32.2473 29.3632 32.3188 29.3673C32.3441 29.3713 32.3714 29.3774 32.3945 29.3835ZM19.4883 18.262C19.4946 18.262 19.503 18.262 19.5093 18.262C19.5198 18.262 19.5282 18.264 19.5388 18.264C19.543 18.264 19.5493 18.264 19.5556 18.264C19.6166 18.264 19.9742 18.264 20.2287 18.264C20.3843 18.264 20.5168 18.3696 20.5463 18.5157C20.826 19.8574 22.1343 26.1561 22.4372 27.6155C22.4519 27.6886 22.433 27.7657 22.3825 27.8246C22.332 27.8835 22.2584 27.918 22.1806 27.918C22.0986 27.918 22.0249 27.8693 21.9976 27.7941C21.6253 26.8239 19.1686 20.3994 18.5123 18.6821C18.4766 18.5867 18.4913 18.4792 18.5502 18.3959C18.6112 18.3107 18.71 18.262 18.8173 18.262C19.1034 18.262 19.4252 18.262 19.4883 18.262ZM22.9105 18.264C23.0766 18.264 23.2175 18.3858 23.2323 18.5461C23.3711 19.9386 23.9811 26.0546 24.1325 27.5749C24.1409 27.6622 24.1115 27.7495 24.0505 27.8144C23.9874 27.8794 23.9011 27.918 23.8086 27.918C23.7686 27.918 23.7287 27.918 23.6908 27.918C23.5352 27.918 23.4026 27.8124 23.3732 27.6663C23.0977 26.3469 21.8272 20.2228 21.497 18.6395C21.4781 18.5461 21.5033 18.4507 21.5643 18.3777C21.6274 18.3066 21.7178 18.264 21.8167 18.264C22.1469 18.264 22.6118 18.264 22.9105 18.264ZM26.3242 18.264C26.4168 18.264 26.503 18.3005 26.564 18.3675C26.625 18.4325 26.6566 18.5198 26.6481 18.607C26.4967 20.1274 25.8867 26.2413 25.7479 27.6338C25.7311 27.7941 25.5922 27.918 25.4261 27.918C25.4072 27.918 25.3903 27.918 25.3714 27.918C25.2052 27.918 25.0664 27.7941 25.0496 27.6338C24.9108 26.2413 24.3008 20.1274 24.1493 18.607C24.1409 18.5198 24.1704 18.4325 24.2335 18.3675C24.2945 18.3005 24.3807 18.264 24.4733 18.264C24.9612 18.264 25.8362 18.264 26.3242 18.264ZM28.9808 18.264C29.0796 18.264 29.1701 18.3066 29.2332 18.3777C29.2942 18.4507 29.3194 18.5461 29.3005 18.6395C28.9703 20.2228 27.6998 26.3448 27.4243 27.6642C27.3948 27.8104 27.2623 27.9159 27.1067 27.9159C27.0688 27.9159 27.0288 27.9159 26.9889 27.9159C26.8963 27.9159 26.8101 27.8794 26.747 27.8144C26.686 27.7495 26.6566 27.6622 26.665 27.5729C26.8164 26.0525 27.4264 19.9386 27.5652 18.5461C27.5799 18.3858 27.7209 18.264 27.887 18.264C28.1857 18.264 28.6505 18.264 28.9808 18.264ZM31.9802 18.262C32.0853 18.262 32.1863 18.3107 32.2473 18.3959C32.3062 18.4792 32.3209 18.5867 32.2852 18.6821C31.6289 20.3994 29.1722 26.8219 28.802 27.7941C28.7725 27.8672 28.6989 27.9159 28.619 27.9159C28.6169 27.9159 28.6169 27.9159 28.6169 27.9159C28.5391 27.9159 28.4654 27.8835 28.415 27.8246C28.3645 27.7657 28.3456 27.6886 28.3603 27.6135C28.6632 26.154 29.9715 19.8554 30.2512 18.5157C30.2807 18.3696 30.4132 18.264 30.5688 18.264C30.8233 18.264 31.1809 18.264 31.2419 18.264C31.2482 18.264 31.2545 18.264 31.2587 18.264L31.2776 18.262C31.2798 18.262 31.284 18.262 31.2903 18.262C31.2966 18.262 31.3029 18.262 31.3092 18.262C31.3723 18.262 31.6941 18.262 31.9802 18.262ZM33.0234 19.2769C33.0361 19.2424 33.0676 19.2201 33.1034 19.214C33.2296 19.1916 33.5346 19.1429 33.6839 19.1348C33.7449 19.1348 33.7449 19.1348 33.8059 19.1348C35.0069 19.1876 35.9661 20.3182 35.6947 21.5219C35.5601 22.0558 35.4318 22.5896 35.192 23.0829C34.5778 24.3515 33.4126 25.3461 32.0391 25.8353C31.6226 25.9774 30.9096 26.2149 30.5352 26.3387C30.491 26.353 30.4426 26.3408 30.4111 26.3083C30.3795 26.2758 30.369 26.2291 30.3858 26.1885C30.4868 25.9328 30.6445 25.537 30.7013 25.3969C30.7139 25.3644 30.7413 25.3401 30.7749 25.3279C31.3555 25.1472 31.9318 24.9747 32.4429 24.6966C33.6839 24.0186 34.439 22.8027 34.8113 21.325C34.967 20.6328 34.3801 19.9021 33.6019 20.0219C33.3978 20.0604 33.055 20.1416 32.8426 20.1924C32.8068 20.2025 32.7689 20.1903 32.7437 20.1639C32.7185 20.1355 32.71 20.099 32.7227 20.0645C32.8131 19.827 32.9688 19.421 33.0234 19.2769ZM31.9066 15C31.997 15 32.079 15.0447 32.1232 15.1198C32.1695 15.1928 32.1716 15.2842 32.1295 15.3593C31.8371 15.8749 31.3155 16.7964 31.1031 17.174C31.0442 17.2755 30.9327 17.3384 30.8107 17.3364C27.2034 17.2592 23.594 17.2592 19.9868 17.3364C19.8648 17.3384 19.7533 17.2755 19.6944 17.174C19.4946 16.8208 19.0234 15.9885 18.7269 15.4628C18.6722 15.3654 18.6743 15.2476 18.7332 15.1543C18.7921 15.0589 18.8972 15 19.0108 15C21.274 15 29.8873 15 31.9066 15Z" fill="#D95D39"/>
<path d="M59.88 26.64C60.56 26.8533 61.08 27.18 61.44 27.62C61.8133 28.06 62 28.58 62 29.18C62 30.1267 61.58 30.88 60.74 31.44C59.9 32 58.76 32.28 57.32 32.28C55.8533 32.28 54.6133 32.0467 53.6 31.58V29.02H53.84C54.6933 29.7667 55.8067 30.14 57.18 30.14C58.66 30.14 59.4 29.7333 59.4 28.92C59.4 28.12 58.6267 27.72 57.08 27.72H55.68V25.86H57.14C57.7267 25.86 58.18 25.7667 58.5 25.58C58.8333 25.3933 59 25.1467 59 24.84C59 24.52 58.8267 24.2733 58.48 24.1C58.1467 23.9133 57.6733 23.82 57.06 23.82C55.9133 23.82 54.9333 24.1467 54.12 24.8H53.9V22.32C55.06 21.8933 56.2133 21.68 57.36 21.68C58.64 21.68 59.6667 21.9267 60.44 22.42C61.2133 22.9133 61.6 23.5733 61.6 24.4C61.6 25.44 61.0267 26.1867 59.88 26.64ZM73.7311 26.38C73.7311 26.6733 73.7044 27.0333 73.6511 27.46H66.2711C66.3778 28.3533 66.7044 29.02 67.2511 29.46C67.8111 29.8867 68.5244 30.1 69.3911 30.1C70.5644 30.1 71.7111 29.72 72.8311 28.96H73.0711V31.38C71.8844 31.98 70.6178 32.28 69.2711 32.28C67.6711 32.28 66.3511 31.82 65.3111 30.9C64.2711 29.9667 63.7511 28.66 63.7511 26.98C63.7511 25.3133 64.2511 24.0133 65.2511 23.08C66.2644 22.1467 67.5244 21.68 69.0311 21.68C70.4444 21.68 71.5778 22.0867 72.4311 22.9C73.2844 23.7133 73.7178 24.8733 73.7311 26.38ZM68.9911 23.64C68.3244 23.64 67.7578 23.8267 67.2911 24.2C66.8244 24.5733 66.5111 25.1 66.3511 25.78H71.2511C71.1044 24.3533 70.3511 23.64 68.9911 23.64ZM65.6511 19.92C65.3978 19.6667 65.2711 19.34 65.2711 18.94C65.2711 18.54 65.3978 18.2133 65.6511 17.96C65.9178 17.7067 66.2444 17.58 66.6311 17.58C67.0178 17.58 67.3378 17.7067 67.5911 17.96C67.8578 18.2133 67.9911 18.54 67.9911 18.94C67.9911 19.34 67.8578 19.6667 67.5911 19.92C67.3378 20.1733 67.0178 20.3 66.6311 20.3C66.2444 20.3 65.9178 20.1733 65.6511 19.92ZM69.9311 19.92C69.6778 19.6667 69.5511 19.34 69.5511 18.94C69.5511 18.54 69.6778 18.2133 69.9311 17.96C70.1978 17.7067 70.5244 17.58 70.9111 17.58C71.2978 17.58 71.6178 17.7067 71.8711 17.96C72.1244 18.2133 72.2511 18.54 72.2511 18.94C72.2511 19.34 72.1244 19.6667 71.8711 19.92C71.6178 20.1733 71.2978 20.3 70.9111 20.3C70.5244 20.3 70.1978 20.1733 69.9311 19.92ZM81.6708 21.68C82.9508 21.68 84.0508 22.16 84.9708 23.12C85.8908 24.0667 86.3508 25.3533 86.3508 26.98C86.3508 28.6067 85.8908 29.9 84.9708 30.86C84.0508 31.8067 82.9508 32.28 81.6708 32.28C80.4308 32.28 79.4108 31.8267 78.6108 30.92V35.88H76.0508V21.96H78.2308V23.5C79.0708 22.2867 80.2174 21.68 81.6708 21.68ZM79.1508 29.16C79.6708 29.68 80.3108 29.94 81.0708 29.94C81.8308 29.94 82.4641 29.68 82.9708 29.16C83.4908 28.64 83.7508 27.9133 83.7508 26.98C83.7508 26.0467 83.4908 25.32 82.9708 24.8C82.4641 24.28 81.8308 24.02 81.0708 24.02C80.3108 24.02 79.6708 24.28 79.1508 24.8C78.6441 25.32 78.3908 26.0467 78.3908 26.98C78.3908 27.9133 78.6441 28.64 79.1508 29.16ZM95.1666 21.96H97.7066V32H95.1666V27.74H91.2866V32H88.7266V21.96H91.2866V25.72H95.1666V21.96ZM103.259 25.3H105.059C106.259 25.3 107.206 25.5933 107.899 26.18C108.593 26.7667 108.939 27.58 108.939 28.62C108.939 29.6867 108.593 30.52 107.899 31.12C107.206 31.7067 106.259 32 105.059 32H100.699V21.96H103.259V25.3ZM110.299 21.96H112.839V32H110.299V21.96ZM103.259 30H104.699C105.806 30 106.359 29.54 106.359 28.62C106.359 27.7133 105.806 27.26 104.699 27.26H103.259V30ZM127.296 21.96H129.856V32H115.836V21.96H118.396V29.98H121.556V21.96H124.116V29.98H127.296V21.96ZM142.228 32H139.048L135.388 27.2V32H132.828V21.96H135.388V26.02L138.708 21.96H141.808L137.828 26.5L142.228 32ZM144.392 30.82C143.379 29.8467 142.872 28.5667 142.872 26.98C142.872 25.3933 143.379 24.1133 144.392 23.14C145.406 22.1667 146.699 21.68 148.272 21.68C149.832 21.68 151.126 22.1667 152.152 23.14C153.179 24.1133 153.692 25.3933 153.692 26.98C153.692 28.5667 153.179 29.8467 152.152 30.82C151.126 31.7933 149.832 32.28 148.272 32.28C146.699 32.28 145.406 31.7933 144.392 30.82ZM145.452 26.98C145.452 27.8733 145.719 28.5933 146.252 29.14C146.786 29.6867 147.459 29.96 148.272 29.96C149.099 29.96 149.772 29.6933 150.292 29.16C150.826 28.6133 151.092 27.8867 151.092 26.98C151.092 26.0733 150.826 25.3533 150.292 24.82C149.772 24.2733 149.099 24 148.272 24C147.459 24 146.786 24.2733 146.252 24.82C145.719 25.3533 145.452 26.0733 145.452 26.98ZM155.785 31.82C155.465 31.5133 155.305 31.1067 155.305 30.6C155.305 30.0933 155.465 29.6867 155.785 29.38C156.105 29.0733 156.505 28.92 156.985 28.92C157.465 28.92 157.865 29.0733 158.185 29.38C158.505 29.6867 158.665 30.0933 158.665 30.6C158.665 31.1067 158.505 31.5133 158.185 31.82C157.865 32.1267 157.465 32.28 156.985 32.28C156.505 32.28 156.105 32.1267 155.785 31.82Z" fill="#FCECDC"/>
<defs>
<filter id="filter0_d_1291_2061" x="0" y="0" width="54" height="54" filterUnits="userSpaceOnUse" color-interpolation-filters="sRGB">
<feFlood flood-opacity="0" result="BackgroundImageFix"/>
<feColorMatrix in="SourceAlpha" type="matrix" values="0 0 0 0 0 0 0 0 0 0 0 0 0 0 0 0 0 0 127 0" result="hardAlpha"/>
<feOffset/>
<feGaussianBlur stdDeviation="5"/>
<feComposite in2="hardAlpha" operator="out"/>
<feColorMatrix type="matrix" values="0 0 0 0 0.345098 0 0 0 0 0.227451 0 0 0 0 0.176471 0 0 0 0.4 0"/>
<feBlend mode="normal" in2="BackgroundImageFix" result="effect1_dropShadow_1291_2061"/>
<feBlend mode="normal" in="SourceGraphic" in2="effect1_dropShadow_1291_2061" result="shape"/>
</filter>
</defs>
</svg>
