<svg width="123" height="73" viewBox="0 0 123 73" fill="none" xmlns="http://www.w3.org/2000/svg">
<rect width="123" height="73" rx="10" fill="#55BC6B"/>
<path d="M50.624 40.7329H54.8652V43.9033H50.624V51H46.7188V43.9033H32.7983V41.6147L46.4878 20.4297H50.624V40.7329ZM37.2075 40.7329H46.7188V25.7417L46.2568 26.5815L37.2075 40.7329ZM58.8545 48.9634C58.8545 48.2915 59.0505 47.7316 59.4424 47.2837C59.8483 46.8358 60.4502 46.6118 61.248 46.6118C62.0459 46.6118 62.6478 46.8358 63.0537 47.2837C63.4736 47.7316 63.6836 48.2915 63.6836 48.9634C63.6836 49.6073 63.4736 50.1462 63.0537 50.5801C62.6478 51.014 62.0459 51.231 61.248 51.231C60.4502 51.231 59.8483 51.014 59.4424 50.5801C59.0505 50.1462 58.8545 49.6073 58.8545 48.9634ZM82.4751 51H78.5698V25.1118L70.7383 27.9883V24.4609L81.8662 20.2827H82.4751V51Z" fill="white"/>
</svg>
