<svg width="13" height="12" viewBox="0 0 13 12" fill="none" xmlns="http://www.w3.org/2000/svg">
<path d="M12.4583 3.4421H11.6031C11.3631 3.4421 11.1518 3.60192 11.0836 3.83402L10.5571 5.63153H10.4986L10.2646 4.91342C10.191 4.68845 9.98399 4.53684 9.74999 4.53684H8.66665V3.98946C8.66665 3.68731 8.42452 3.4421 8.12498 3.4421H7.04164V2.89474H7.58331C7.88286 2.89474 8.12498 2.64953 8.12498 2.34738V0.705257C8.12498 0.40311 7.88286 0.157898 7.58331 0.157898H3.25C2.95047 0.157898 2.70834 0.40311 2.70834 0.705257V2.34736C2.70834 2.6495 2.95047 2.89472 3.25 2.89472H3.79166V3.44207H2.16666C1.86713 3.4421 1.625 3.68731 1.625 3.98946V6.1789H1.08334V5.63153C1.08334 5.32944 0.841216 5.0842 0.541683 5.0842C0.242125 5.0842 0 5.32944 0 5.63153V7.82101C0 8.12316 0.242125 8.36838 0.541659 8.36838C0.841192 8.36838 1.08332 8.12316 1.08332 7.82101V7.27364H1.625V8.36838C1.625 8.44939 1.64288 8.5293 1.67753 8.6027L2.44725 10.2448C2.53662 10.4358 2.72675 10.5579 2.93638 10.5579H9.46512C9.65633 10.5579 9.83345 10.4555 9.93095 10.2897L10.4157 9.46316H10.5934L11.0987 10.7588C11.1811 10.9679 11.381 11.1053 11.603 11.1053H12.4583C12.7579 11.1053 13 10.86 13 10.5579V3.98946C13 3.68731 12.7579 3.4421 12.4583 3.4421Z" fill="#262626"/>
</svg>
