<svg width="123" height="73" viewBox="0 0 123 73" fill="none" xmlns="http://www.w3.org/2000/svg">
<rect width="123" height="73" rx="10" fill="#55BC6B"/>
<path d="M50.624 40.7329H54.8652V43.9033H50.624V51H46.7188V43.9033H32.7983V41.6147L46.4878 20.4297H50.624V40.7329ZM37.2075 40.7329H46.7188V25.7417L46.2568 26.5815L37.2075 40.7329ZM58.8545 48.9634C58.8545 48.2915 59.0505 47.7316 59.4424 47.2837C59.8483 46.8358 60.4502 46.6118 61.248 46.6118C62.0459 46.6118 62.6478 46.8358 63.0537 47.2837C63.4736 47.7316 63.6836 48.2915 63.6836 48.9634C63.6836 49.6073 63.4736 50.1462 63.0537 50.5801C62.6478 51.014 62.0459 51.231 61.248 51.231C60.4502 51.231 59.8483 51.014 59.4424 50.5801C59.0505 50.1462 58.8545 49.6073 58.8545 48.9634ZM71.4941 35.6729L73.0479 20.4297H88.7109V24.02H76.3442L75.4204 32.3555C76.9181 31.4736 78.6188 31.0327 80.5225 31.0327C83.3079 31.0327 85.5195 31.9565 87.1572 33.8042C88.7949 35.6379 89.6138 38.1224 89.6138 41.2578C89.6138 44.4072 88.7599 46.8918 87.0522 48.7114C85.3586 50.5171 82.986 51.4199 79.9346 51.4199C77.2331 51.4199 75.0285 50.6711 73.3208 49.1733C71.6131 47.6756 70.6403 45.604 70.4023 42.9585H74.0767C74.3146 44.7082 74.9375 46.0309 75.9453 46.9268C76.9531 47.8086 78.2829 48.2495 79.9346 48.2495C81.7402 48.2495 83.154 47.6336 84.1758 46.4019C85.2116 45.1701 85.7295 43.4694 85.7295 41.2998C85.7295 39.2562 85.1696 37.6185 84.0498 36.3867C82.944 35.141 81.4673 34.5181 79.6196 34.5181C77.9259 34.5181 76.5962 34.889 75.6304 35.6309L74.6016 36.4707L71.4941 35.6729Z" fill="white"/>
</svg>
