<svg width="46" height="18" viewBox="0 0 46 18" fill="none" xmlns="http://www.w3.org/2000/svg">
<path d="M2.3314 9.04738L10 17L17.6686 9.04738C18.5211 8.16332 19 6.96429 19 5.71405C19 3.11055 16.9648 1 14.4543 1C13.2487 1 12.0925 1.49666 11.24 2.38071L10 3.66667L8.75997 2.38071C7.90749 1.49666 6.75128 1 5.54569 1C3.03517 1 1 3.11055 1 5.71405C1 6.96429 1.47892 8.16332 2.3314 9.04738Z" stroke="#737373" stroke-width="2" stroke-linecap="round" stroke-linejoin="round"/>
<path d="M39.8667 14.4333C39.8667 15.8509 41.0158 17 42.4333 17V17C43.8509 17 45 15.8509 45 14.4333V9.38485C45 7.96732 43.8509 6.81818 42.4333 6.81818V6.81818C41.0158 6.81818 39.8667 7.96732 39.8667 9.38485V14.4333Z" stroke="#737373" stroke-width="2" stroke-linecap="round" stroke-linejoin="round"/>
<path d="M31 14.4333C31 15.8509 32.1491 17 33.5667 17V17C34.9842 17 36.1333 15.8509 36.1333 14.4333V3.56667C36.1333 2.14914 34.9842 1 33.5667 1V1C32.1491 1 31 2.14914 31 3.56667V14.4333Z" stroke="#737373" stroke-width="2" stroke-linecap="round" stroke-linejoin="round"/>
</svg>
