<svg width="32" height="32" viewBox="0 0 32 32" fill="none" xmlns="http://www.w3.org/2000/svg">
<path fill-rule="evenodd" clip-rule="evenodd" d="M5.27466 12.25C5.27466 8.97773 7.92737 6.32501 11.1997 6.32501C13.1741 6.32501 14.9227 7.29077 15.9992 8.7756C17.0759 7.29074 18.8247 6.32501 20.7991 6.32501C24.0714 6.32501 26.7241 8.97773 26.7241 12.25C26.7241 15.1797 25.1453 17.3295 23.2412 19.3102C22.5605 20.0183 21.8496 20.6978 21.1226 21.3925C19.7475 22.7068 18.315 24.0759 16.9209 25.7977C16.8619 25.8814 16.7904 25.9584 16.7067 26.0258C16.4981 26.1939 16.2479 26.2754 15.9994 26.2749C15.751 26.2754 15.5009 26.194 15.2923 26.026C15.2085 25.9585 15.1369 25.8815 15.0779 25.7977C13.6838 24.0759 12.2513 22.7068 10.8762 21.3925C10.1492 20.6978 9.43832 20.0183 8.75761 19.3102C6.8535 17.3295 5.27466 15.1797 5.27466 12.25ZM15.9994 23.4031C14.7545 21.9877 13.449 20.7372 12.2772 19.6147C11.5846 18.9512 10.9388 18.3325 10.3797 17.7509C8.57115 15.8696 7.52466 14.2698 7.52466 12.25C7.52466 10.2204 9.17001 8.57501 11.1997 8.57501C13.2291 8.57501 14.8741 10.2202 14.8741 12.25C14.8741 12.8713 15.3778 13.375 15.9991 13.375C16.6205 13.375 17.1241 12.8713 17.1241 12.25C17.1241 10.2204 18.7695 8.57501 20.7991 8.57501C22.8288 8.57501 24.4741 10.2204 24.4741 12.25C24.4741 14.2698 23.4276 15.8696 21.6191 17.7509C21.06 18.3325 20.4142 18.9512 19.7216 19.6147C18.5498 20.7372 17.2443 21.9877 15.9994 23.4031Z" fill="#F8D8B9"/>
</svg>
