<svg width="16" height="16" viewBox="0 0 16 16" fill="none" xmlns="http://www.w3.org/2000/svg">
<path fill-rule="evenodd" clip-rule="evenodd" d="M1.25 5.49995C1.25 4.36777 2.16782 3.44995 3.3 3.44995H12.7C13.8322 3.44995 14.75 4.36777 14.75 5.49995V6.93725C14.7501 6.9468 14.7502 6.95638 14.7502 6.96598V9.79983C14.7502 9.80598 14.7501 9.81211 14.75 9.81823V10.9C14.75 12.0321 13.8322 12.95 12.7 12.95H3.3C2.16782 12.95 1.25 12.0321 1.25 10.9V5.49995ZM2.75 6.96595V10.9C2.75 11.2037 2.99624 11.45 3.3 11.45H12.7C13.0038 11.45 13.25 11.2037 13.25 10.9V6.95515C13.2431 6.78717 13.0768 6.67846 12.9248 6.72738L12.5997 6.91475L8.90055 9.13414C8.34638 9.46663 7.65407 9.46663 7.0999 9.13415L3.12862 6.75157C2.96199 6.6516 2.75 6.77163 2.75 6.96595ZM10.6741 4.94995H5.41049C5.40406 4.95011 5.39761 4.9502 5.39115 4.9502L3.681 4.95015C3.62517 4.95015 3.6005 4.96579 3.58696 4.97687C3.56801 4.99236 3.54726 5.02054 3.53631 5.06057C3.52536 5.1006 3.52887 5.13542 3.53729 5.1584C3.54332 5.17483 3.55658 5.20085 3.60464 5.22927L7.87925 7.75721C7.95688 7.80311 8.05321 7.80365 8.13134 7.75862L11.8393 5.62172L12.0999 5.46535C12.1511 5.4346 12.203 5.40682 12.2553 5.38193L12.5252 5.2264C12.5696 5.19879 12.5822 5.17376 12.5881 5.15766C12.5964 5.13464 12.5997 5.09991 12.5887 5.06011C12.5777 5.02031 12.5569 4.99226 12.538 4.97679C12.5243 4.96568 12.4996 4.95015 12.4441 4.95015L10.6935 4.9502C10.687 4.9502 10.6806 4.95011 10.6741 4.94995Z" fill="#583A2D"/>
</svg>
